# xmcd
#
# Track frame offsets:
#	150
#	25123
#	38690
#	59092
#	76278
#	85759
#	102083
#	119815
#	144118
#	160249
#
# Disc length: 2228 seconds
#
# Revision: 1
# Processed by: cddbd v1.5.2PL0 Copyright (c) Steve Scherf et al.
# Submitted via: audiograbber 1.83.01
#
DISCID=7908b20a
DTITLE=Tombs - Winter Hours
DYEAR=2009
DGENRE=Metal
TTITLE0=Gossamer
TTITLE1=Golden eyes
TTITLE2=Beneath the toxic jungle
TTITLE3=The great silence
TTITLE4=Story of a room
TTITLE5=The divide
TTITLE6=Merrimack
TTITLE7=Filled with secrets
TTITLE8=Seven stars the angel of death
TTITLE9=Old dominion
EXTD=
EXTT0=
EXTT1=
EXTT2=
EXTT3=
EXTT4=
EXTT5=
EXTT6=
EXTT7=
EXTT8=
EXTT9=
PLAYORDER=
